<svg xmlns="http://www.w3.org/2000/svg" viewBox="0 0 128 128"><path fill="#622ba6" d="M110 0c.7 6.72 1.39 13.44 2.08 20.17.24 2.28.47 4.56.71 6.84 2.52 24.3 2.52 24.3 3.21 35.99h3c1.51 9.23 2.67 18.45 3.62 27.75.07.62.07.62.41 3.79.13 1.22.25 2.44.38 3.69.12 1.09.23 2.17.35 3.29.29 4.17.29 8.3.24 12.48-7.16.92-14.33 1.83-21.49 2.74-3.33.42-6.65.84-9.98 1.27-3.83.49-7.67.98-11.5 1.46-1.18.15-2.37.3-3.59.46-5.86.74-11.53 1.25-17.44 1.07-.16-1.48-.16-1.48-1-9h-3c.06 1.03.12 2.06.19 3.12-.24 4.86-1.35 8.17-4.96 11.52-4.06 2.47-8.64 2.02-13.23 1.36-2.69-2-2.69-2-4-4l1-2c.61.19.61.19 3.69 1.12 2.85.71 4.19.91 7.12.26 2.61-1.64 3.8-2.61 5.19-5.38.73-7.26-1.06-12.52-4.56-18.81C42.81 95.93 38.67 95.1 34 94v-1c10.84-.57 10.84-.57 15 3 3.37 3.52 5.56 6.07 6 11h3c-.09-.65-.18-1.3-.28-1.97-.41-2.99-.81-5.98-1.22-8.97-.14-1.02-.29-2.04-.43-3.09C55.25 86.91 54.85 81.11 55 75c.83-.33.83-.33 5-2l-7-6c.16-.5.16-.5 1-3 .66.41 1.33.82 2.01 1.24.88.54 1.77 1.08 2.68 1.64.87.53 1.74 1.06 2.63 1.61C66.35 71.32 71.17 73.27 77 72c2.93-1.72 5.42-3.81 8-6l2-1v4l6-1c2.06-4.84 2.55-8.97 1-14-1.89-3.91-3.93-7.91-7.88-9.99-.62-.21-1.24-.42-1.87-.63-1.07-.46-2.14-.91-3.25-1.38-1.44-3.69-1.44-3.69-2-7 4.75-1.12 4.75-1.12 7 0-3.26-4.89-6.34-8.42-11-12l1-2 7 4c-.31-.82-.62-1.65-.94-2.5-1.18-3.89-1.64-7.46-2.06-11.5l3 1c1.03 2.11 1.03 2.11 1.94 4.75C87.12 22.57 89.26 26.32 95 29c-1.69-6.97-4.4-12.35-10-17-3.31-1-3.31-1-6-1h-2c-.27.6-.54 1.2-.81 1.81-1.59 2.93-3.21 4.7-6.19 6.19-3.3-.01-6.59-.08-9.88-.21-4.86-.1-7.81.76-12.12 3.21-3.06.44-3.06.44-6 0-1.7-1.29-3.38-2.62-5-4 .43 1.22.87 2.44 1.31 3.69.57 1.62 1.13 3.25 1.69 4.87.14.4.14.4.87 2.43 1.65 4.8 2.64 8.86 2.13 14.01-1.94 2.94-1.94 2.94-5 5-3.05.4-5.95.3-9 0 .14.68.29 1.35.44 2.05.18.89.37 1.78.56 2.7.19.88.37 1.76.56 2.67C31 58 31 58 31 62h2v2h2c4.6 5.04 6.52 8.67 6.39 15.61-1.24 7.58-8.84 12.8-14.32 17.51-2.73 2.48-3.01 3.43-3.51 7.13.53 4.53 1.78 5.66 5.13 8.49.21.21.21.21 1.31 1.26v2l-13 2c-2.23-9.97-3.36-20.07-4.6-30.2-.25-1.96-.49-3.93-.73-5.89-.51-4.1-1.02-8.2-1.52-12.3L8.2 53.87q-.765-6.075-1.5-12.15l-.72-5.8c-.34-2.71-.67-5.41-1-8.11-.1-.8-.2-1.59-.3-2.4A94 94 0 0 1 4 12c9.8-2.21 19.72-3.24 29.69-4.38 1.92-.22 3.83-.45 5.75-.67 3.99-.46 7.99-.92 11.99-1.37l15.32-1.77c3.95-.46 7.9-.91 11.85-1.37 1.88-.21 3.76-.43 5.64-.65 2.64-.31 5.27-.61 7.91-.9.77-.09 1.53-.18 2.32-.28C99.67.03 104.76-.07 110 0M25 18c-3.38 3.69-6.55 7.64-7.5 12.62.75 5.07 3.87 7.93 7.5 11.38 3 2 3 2 6.5 1.81C35 43 35 43 36.88 41.88c2.4-4.01 2.43-7.38 1.51-11.83-.54-2.07-1.1-4.13-1.7-6.18-.66-2.75-.82-5.06-.69-7.87-4.06-1.79-7.52-.36-11 2m62 19 1 2Zm13 33.19c-1.19.19-2.39.39-3.62.59-6.79 1.21-12.18 2.91-18.21 6.22-3.16 1.46-5.65 1.26-9.05.75-6.64-.93-6.64-.93-10.12.25.68 13.07 2.38 26.02 4 39 6.93-.59 13.72-1.56 20.57-2.81.48-.09.48-.09 2.91-.53 2-.36 4.01-.73 6.02-1.1 3.08-.56 6.17-1.12 9.26-1.68 1.96-.35 3.91-.71 5.87-1.07.92-.16 1.85-.33 2.8-.5.85-.16 1.7-.32 2.58-.48.75-.13 1.49-.27 2.27-.41C117 108 117 108 118 107c-.04-2.97-.15-5.91-.31-8.88-.05-.88-.1-1.77-.14-2.68-.52-9.18-1.49-18.31-2.55-27.44-5.01 0-10.08 1.32-15 2.19"/><path fill="#622ca6" d="M111 74h2c1.4 10.33 2.43 20.59 3 31-5.22 1.58-10.42 2.74-15.79 3.73-.81.15-1.63.3-2.48.46-1.72.32-3.44.64-5.16.95-2.63.48-5.25.98-7.88 1.47l-5.04.93c-.39.07-.39.07-2.36.44-4.15.76-8.04 1.18-12.29 1.02-.61-5.54 1.28-8.6 4.5-12.88l1.3-1.79c1.05-1.45 2.13-2.89 3.2-4.33l11 3 2-5q1.515-2.685 3.12-5.31c.54-.89 1.08-1.77 1.64-2.68.41-.66.82-1.33 1.24-2.01.63.35 1.25.7 1.9 1.06.82.45 1.63.91 2.48 1.38.4.22.4.22 2.46 1.37 1.37.76 2.76 1.49 4.16 2.19z"/><path fill="#632ca6" d="M64 38c.98 6.05.98 6.05 1 8-2.14 2.14-3.14 2.51-6 3.25-.7.19-1.4.38-2.12.58-.62.05-1.24.11-1.88.17-2-2-2-2-2.31-5.44C53 41 53 41 54 39.06c3.27-1.73 6.34-1.24 10-1.06"/><path fill="#622aa6" d="M92 54c-.6 6.32-.6 6.32-2.19 9-2.85 1.58-4.75.87-7.81 0-2.38-1.31-2.38-1.31-4-3v-4c4.93-1.97 8.78-2.18 14-2"/></svg>